#!OML:ASF I:\Actors\actors\Patient Classification 2\Patient 1\Session 1\actor1.ASF
:FULLY-SPECIFIED
:DEGREES
833
root -0.518104 18.7205 5.44244 2.08778 -0.803059 -0.901142
lowerback 2.96105 0.0643021 -0.529396
upperback -0.196734 0.0926515 1.37656
thorax -1.86483 0.0580668 1.70508
lowerneck -9.21996 -2.05929 -1.79917
upperneck 25.1275 -4.62391 8.01605
head 9.68056 -1.46679 2.58813
rclavicle 4.28629e-015 -9.74045e-015
rhumerus -48.4704 19.5083 -94.2622
rradius 81.9874
rwrist 6.42228
rhand -7.7954 -48.2579
rfingers 7.12502
rthumb 18.1057 -77.4352
lclavicle 4.28629e-015 -9.74045e-015
lhumerus -15.1526 -38.1767 84.7088
lradius 108.668
lwrist 26.1762
lhand -18.3974 -52.5888
lfingers 7.12502
lthumb 7.88679 -22.756
rfemur 0 0 0
rtibia 0
rfoot 0 0
rtoes 0
lfemur -5.96249 -5.88544 -13.9407
ltibia 21.8919
lfoot -21.989 14.8293
ltoes -55.3407
834
root -0.520439 18.7216 5.44288 2.14166 -0.752866 -0.946954
lowerback 2.93555 0.0460709 -0.60409
upperback -0.249032 0.0659525 1.36829
thorax -1.90339 0.0459626 1.73981
lowerneck -9.15008 -1.872 -1.63169
upperneck 24.6604 -4.38406 8.14453
head 9.48714 -1.33926 2.62242
rclavicle -9.93923e-016 1.47101e-014
rhumerus -48.8784 18.6049 -93.8065
rradius 81.1429
rwrist 6.34605
rhand -7.70895 -48.099
rfingers 7.12502
rthumb 18.1889 -77.2686
lclavicle -9.93923e-016 1.47101e-014
lhumerus -13.9708 -38.3193 83.9422
lradius 110.154
lwrist 24.6024
lhand -18.5488 -54.1598
lfingers 7.12502
lthumb 7.74069 -24.3214
rfemur 0 0 0
rtibia 0
rfoot 0 0
rtoes 0
lfemur -6.04485 -5.89865 -13.8702
ltibia 21.9185
lfoot -21.9946 14.7952
ltoes -55.3277
835
root -0.521938 18.7214 5.44435 2.16034 -0.729905 -0.997335
lowerback 2.90308 0.0171281 -0.644463
upperback -0.276204 0.0257122 1.34655
thorax -1.91166 0.0263782 1.74198
lowerneck -9.08453 -1.66065 -1.34155
upperneck 24.2055 -4.10556 8.15822
head 9.29381 -1.19466 2.59902
rclavicle 1.40392e-015 -1.78906e-015
rhumerus -49.1569 17.7315 -93.3802
rradius 80.1853
rwrist 6.41962
rhand -7.54395 -47.9723
rfingers 7.12502
rthumb 18.3476 -77.127
lclavicle 1.40392e-015 -1.78906e-015
lhumerus -12.747 -38.4919 83.1168
lradius 111.603
lwrist 23.1236
lhand -18.7913 -55.5687
lfingers 7.12502
lthumb 7.50663 -25.7219
rfemur 0 0 0
rtibia 0
rfoot 0 0
rtoes 0
lfemur -6.07235 -5.9012 -13.8038
ltibia 21.9402
lfoot -21.9989 14.7528
ltoes -55.288
836
root -0.523013 18.7211 5.44549 2.15264 -0.731137 -1.02359
lowerback 2.88792 -0.0143981 -0.705388
upperback -0.290245 -0.0188526 1.32166
thorax -1.91599 0.0047389 1.75263
lowerneck -9.0554 -1.42969 -1.13391
upperneck 23.8018 -3.81779 8.29159
head 9.13092 -1.03912 2.63262
rclavicle -2.49723e-015 1.19271e-015
rhumerus -49.3676 16.9103 -92.9728
rradius 79.1499
rwrist 6.62697
rhand -7.31307 -47.6945
rfingers 7.12502
rthumb 18.5697 -76.8281
lclavicle -2.49723e-015 1.19271e-015
lhumerus -11.5303 -38.6958 82.256
lradius 113.024
lwrist 21.9871
lhand -19.0395 -56.8771
lfingers 7.12502
lthumb 7.26705 -27.0219
rfemur 0 0 0
rtibia 0
rfoot 0 0
rtoes 0
lfemur -6.05982 -5.94619 -13.777
ltibia 21.9528
lfoot -22.0148 14.7864
ltoes -55.3106
837
root -0.524336 18.7213 5.4459 2.15286 -0.767938 -1.02883
lowerback 2.91732 -0.0368353 -0.780775
upperback -0.33289 -0.0520168 1.27923
thorax -1.97506 -0.010589 1.75306
lowerneck -9.066 -1.21488 -1.08415
upperneck 23.4463 -3.58164 8.64981
head 9.00291 -0.897052 2.76572
rclavicle -1.2424e-016 -3.97569e-016
rhumerus -49.5738 16.1158 -92.6024
rradius 78.0815
rwrist 6.87906
rhand -7.282 -47.3575
rfingers 7.12502
rthumb 18.5996 -76.4883
lclavicle -1.2424e-016 -3.97569e-016
lhumerus -10.2948 -38.8714 81.3476
lradius 114.381
lwrist 21.1102
lhand -18.9161 -57.6589
lfingers 7.12502
lthumb 7.38609 -27.8078
rfemur 0 0 0
rtibia 0
rfoot 0 0
rtoes 0
lfemur -6.04678 -5.99383 -13.776
ltibia 21.9532
lfoot -22.0396 14.8668
ltoes -55.3552
838
root -0.526281 18.7217 5.44625 2.17357 -0.80596 -1.02936
lowerback 2.96218 -0.054555 -0.873074
upperback -0.413914 -0.0792904 1.24544
thorax -2.08241 -0.0220909 1.77182
lowerneck -8.96998 -1.02315 -1.07007
upperneck 23.0187 -3.35877 8.99646
head 8.83061 -0.77065 2.89688
rclavicle -3.77691e-015 5.96354e-016
rhumerus -49.7997 15.3364 -92.2879
rradius 77.0132
rwrist 7.09188
rhand -7.70951 -47.1469
rfingers 7.12502
rthumb 18.1883 -76.3165
lclavicle -3.77691e-015 5.96354e-016
lhumerus -9.07545 -38.982 80.5384
lradius 115.658
lwrist 20.2722
lhand -18.6737 -58.1758
lfingers 7.12502
lthumb 7.6201 -28.333
rfemur 0 0 0
rtibia 0
rfoot 0 0
rtoes 0
lfemur -6.04969 -6.00555 -13.7729
ltibia 21.936
lfoot -22.0644 14.903
ltoes -55.3428
839
root -0.52766 18.7223 5.4474 2.20325 -0.849196 -1.01148
lowerback 2.93716 -0.0766208 -1.02034
upperback -0.468481 -0.11383 1.24247
thorax -2.12291 -0.0369271 1.85324
lowerneck -8.7262 -0.810941 -1.10696
upperneck 22.4078 -3.07675 9.34268
head 8.56484 -0.630407 3.03663
rclavicle 7.92654e-015 -4.57205e-015
rhumerus -49.9364 14.6188 -91.973
rradius 75.9156
rwrist 7.29455
rhand -8.29731 -47.1665
rfingers 7.12502
rthumb 17.6228 -76.3879
lclavicle 7.92654e-015 -4.57205e-015
lhumerus -7.8485 -39.0068 79.8021
lradius 116.823
lwrist 19.3529
lhand -18.5968 -58.9483
lfingers 7.12502
lthumb 7.69437 -29.1083
rfemur 0 0 0
rtibia 0
rfoot 0 0
rtoes 0
lfemur -6.05359 -5.99756 -13.7878
ltibia 21.9097
lfoot -22.0977 14.9066
ltoes -55.2687
840
root -0.527914 18.7225 5.45022 2.21536 -0.920311 -0.977865
lowerback 2.88084 -0.114679 -1.17583
upperback -0.487326 -0.169819 1.24623
thorax -2.10803 -0.0629652 1.94694
lowerneck -8.57055 -0.610285 -1.11261
upperneck 21.8775 -2.79709 9.57247
head 8.3421 -0.496131 3.13076
rclavicle -3.16192e-015 -1.78906e-015
rhumerus -49.9133 13.9124 -91.5662
rradius 74.6906
rwrist 7.66686
rhand -8.36854 -47.0087
rfingers 7.12502
rthumb 17.5542 -76.2362
lclavicle -3.16192e-015 -1.78906e-015
lhumerus -6.65112 -38.9309 79.033
lradius 117.858
lwrist 18.3348
lhand -18.6015 -59.9007
lfingers 7.12502
lthumb 7.6898 -30.0605
rfemur 0 0 0
rtibia 0
rfoot 0 0
rtoes 0
lfemur -6.02824 -5.95552 -13.8247
ltibia 21.886
lfoot -22.113 14.9212
ltoes -55.2172
